<?xml version="1.0" encoding="UTF-8" standalone="no"?>
<svg xmlns="http://www.w3.org/2000/svg" xmlns:xlink="http://www.w3.org/1999/xlink" width="1200" height="300" viewBox="0 0 1200 300">
  <!-- Banner background with gradient -->
  <defs>
    <linearGradient id="banner-gradient" x1="0%" y1="0%" x2="100%" y2="100%">
      <stop offset="0%" style="stop-color:#4a6fa5;stop-opacity:1" />
      <stop offset="100%" style="stop-color:#2C3E50;stop-opacity:1" />
    </linearGradient>
    <filter id="glow" x="-50%" y="-50%" width="200%" height="200%">
      <feGaussianBlur stdDeviation="10" result="blur" />
      <feMerge>
        <feMergeNode in="blur" />
        <feMergeNode in="SourceGraphic" />
      </feMerge>
    </filter>
  </defs>
  
  <!-- Background rectangle -->
  <rect width="1200" height="300" rx="15" ry="15" fill="url(#banner-gradient)" />
  
  <!-- Abstract network/circuit pattern -->
  <g opacity="0.2" stroke="#ffffff" stroke-width="1.5">
    <path d="M50,150 C150,50 250,200 350,100 C450,50 550,150 650,100 C750,150 850,50 950,150 C1050,100 1150,150 1200,100" />
    <path d="M50,200 C150,250 250,150 350,250 C450,200 550,250 650,200 C750,250 850,150 950,200 C1050,250 1150,200 1200,250" />
    <circle cx="350" cy="100" r="8" fill="#ffffff" />
    <circle cx="650" cy="100" r="8" fill="#ffffff" />
    <circle cx="950" cy="150" r="8" fill="#ffffff" />
    <circle cx="350" cy="250" r="8" fill="#ffffff" />
    <circle cx="650" cy="200" r="8" fill="#ffffff" />
    <circle cx="950" cy="200" r="8" fill="#ffffff" />
  </g>
  
  <!-- AI icons/symbols -->
  <g fill="none" stroke="#ffffff" stroke-width="2" opacity="0.7">
    <circle cx="100" cy="100" r="30" />
    <path d="M100,70 L100,130 M70,100 L130,100" />
    
    <rect x="170" y="70" width="60" height="60" rx="5" ry="5" />
    <path d="M180,100 L220,100 M200,80 L200,120" />
    
    <polygon points="280,70 310,130 250,130" />
    <line x1="280" y1="90" x2="280" y2="120" />
  </g>
  
  <!-- Storefront icon -->
  <g transform="translate(950, 100)" filter="url(#glow)">
    <rect x="-40" y="-40" width="80" height="80" rx="10" ry="10" fill="#1565C0" />
    <path fill="#ffffff" d="M-20,-5 L-20,-20 L20,-20 L20,-5 L25,-5 L15,10 L-15,10 L-25,-5 Z" />
    <rect x="-15" y="10" width="10" height="20" fill="#ffffff" />
    <rect x="5" y="10" width="10" height="20" fill="#ffffff" />
  </g>
  
  <!-- Text content -->
  <g font-family="Arial, sans-serif" font-weight="bold" text-anchor="middle">
    <text x="600" y="140" font-size="48" fill="#ffffff" filter="url(#glow)">
      Enterprise AI App Store
    </text>
    <text x="600" y="190" font-size="22" fill="#ffffff" opacity="0.9">
      Discover. Deploy. Transform.
    </text>
  </g>
</svg>